<?xml version="1.0" encoding="utf-8"?>
<svg version="1.1" xmlns="http://www.w3.org/2000/svg" viewBox="470 87.1 1000 435.953" width="1000px" height="435.953px">
  <defs>
    <marker orient="auto" overflow="visible" markerUnits="strokeWidth" id="Arrow_Marker" stroke-linejoin="miter" stroke-miterlimit="10" viewBox="-1 -4 10 8" markerWidth="10" markerHeight="8" color="black">
      <g>
        <path d="M 8 0 L 0 -3 L 0 3 Z" fill="none" stroke="currentColor" stroke-width="1"/>
      </g>
    </marker>
  </defs>
  <g id="Service-call-graph" fill-opacity="1" fill="none" stroke-opacity="1" stroke-dasharray="none" stroke="none" transform="matrix(1.751951, 0, 0, 1.751951, -354.416779, -56.830135)">
    <title>Service-call-graph</title>
    <rect fill="white" x="470" y="87.0625" width="553.5" height="241.2735"/>
    <g id="Service-call-graph_Layer_1">
      <title>Layer 1</title>
      <g id="Graphic_31">
        <circle cx="882.901" cy="102.5625" r="15.0000239685284" fill="aqua"/>
        <circle cx="882.901" cy="102.5625" r="15.0000239685284" stroke="black" stroke-linecap="round" stroke-linejoin="round" stroke-width="1"/>
      </g>
      <g id="Graphic_30">
        <text transform="translate(921.533 93.3385)" fill="black" style="white-space: pre;">
          <tspan font-family="Helvetica Neue" font-size="16" fill="black" x="6288303e-19" y="15">Service</tspan>
        </text>
      </g>
      <g id="Graphic_29">
        <text transform="translate(921.533 130.8385)" fill="black" style="white-space: pre;">
          <tspan font-family="Helvetica Neue" font-size="16" fill="black" x="0" y="15">Service call</tspan>
        </text>
      </g>
      <g id="Line_28">
        <line x1="867.901" y1="139.5625" x2="888.0023" y2="139.89752" marker-end="url(#Arrow_Marker)" stroke="black" stroke-linecap="round" stroke-linejoin="round" stroke-width="1"/>
      </g>
      <g id="Graphic_27">
        <ellipse cx="501.5" cy="262.25" rx="31.0000495349588" ry="29.7500475375814" fill="aqua"/>
        <ellipse cx="501.5" cy="262.25" rx="31.0000495349588" ry="29.7500475375814" stroke="black" stroke-linecap="round" stroke-linejoin="round" stroke-width="1"/>
        <text transform="translate(481.7 253.026)" fill="black" style="white-space: pre;">
          <tspan font-family="Helvetica Neue" font-size="16" fill="black" x="10.167999" y="15">S1</tspan>
        </text>
      </g>
      <g id="Graphic_26">
        <ellipse cx="661.176" cy="262.25" rx="31.0000495349588" ry="29.7500475375814" fill="aqua"/>
        <ellipse cx="661.176" cy="262.25" rx="31.0000495349588" ry="29.7500475375814" stroke="black" stroke-linecap="round" stroke-linejoin="round" stroke-width="1"/>
        <text transform="translate(641.376 253.026)" fill="black" style="white-space: pre;">
          <tspan font-family="Helvetica Neue" font-size="16" fill="black" x="10.167999" y="15">S2</tspan>
        </text>
      </g>
      <g id="Line_25">
        <path d="M 522.99883 240.81662 C 536.1809 230.56853 554.7849 220.5 577 220.5 C 596.5959 220.5 615.01 228.33428 629.589 237.21548" marker-end="url(#Arrow_Marker)" stroke="black" stroke-linecap="round" stroke-linejoin="round" stroke-width="1"/>
      </g>
      <g id="Line_24">
        <path d="M 524.09234 282.62144 C 538.6098 293.22406 559.0177 304 582 304 C 600.6931 304 617.45705 296.87094 630.6942 288.50464" marker-end="url(#Arrow_Marker)" stroke="black" stroke-linecap="round" stroke-linejoin="round" stroke-width="1"/>
      </g>
      <g id="Graphic_23">
        <text transform="translate(566.762 201.5)" fill="black" style="white-space: pre;">
          <tspan font-family="Helvetica Neue" font-size="12" fill="black" x="7283063e-19" y="11">putX</tspan>
        </text>
      </g>
      <g id="Graphic_22">
        <text transform="translate(567.218 309)" fill="black" style="white-space: pre;">
          <tspan font-family="Helvetica Neue" font-size="12" fill="black" x="0" y="11">getX</tspan>
        </text>
      </g>
      <g id="Graphic_20">
        <ellipse cx="830.676" cy="262.25" rx="31.0000495349588" ry="29.7500475375814" fill="aqua"/>
        <ellipse cx="830.676" cy="262.25" rx="31.0000495349588" ry="29.7500475375814" stroke="black" stroke-linecap="round" stroke-linejoin="round" stroke-width="1"/>
        <text transform="translate(810.876 253.026)" fill="black" style="white-space: pre;">
          <tspan font-family="Helvetica Neue" font-size="16" fill="black" x="10.167999" y="15">S3</tspan>
        </text>
      </g>
      <g id="Line_19">
        <path d="M 683.5927 241.70082 C 698.25955 230.92857 719.2104 219.948 743.676 219.948 C 764.72705 219.948 784.04075 228.07744 799.0948 237.20876" marker-end="url(#Arrow_Marker)" stroke="black" stroke-linecap="round" stroke-linejoin="round" stroke-width="1"/>
      </g>
      <g id="Line_18">
        <path d="M 683.9472 282.4374 C 698.8755 293.099 720.1386 304 744.676 304 C 765.4582 304 784.3599 296.18026 799.1162 287.30924" marker-end="url(#Arrow_Marker)" stroke="black" stroke-linecap="round" stroke-linejoin="round" stroke-width="1"/>
      </g>
      <g id="Graphic_15">
        <text transform="translate(731.7 201.5)" fill="black" style="white-space: pre;">
          <tspan font-family="Helvetica Neue" font-size="12" fill="black" x="47961635e-20" y="11">putY</tspan>
        </text>
      </g>
      <g id="Graphic_14">
        <text transform="translate(734.448 309)" fill="black" style="white-space: pre;">
          <tspan font-family="Helvetica Neue" font-size="12" fill="black" x="0" y="11">getY</tspan>
        </text>
      </g>
      <g id="Graphic_12">
        <ellipse cx="992" cy="262.25" rx="31.0000495349587" ry="29.7500475375814" fill="aqua"/>
        <ellipse cx="992" cy="262.25" rx="31.0000495349587" ry="29.7500475375814" stroke="black" stroke-linecap="round" stroke-linejoin="round" stroke-width="1"/>
        <text transform="translate(972.2 253.026)" fill="black" style="white-space: pre;">
          <tspan font-family="Helvetica Neue" font-size="16" fill="black" x="10.167999" y="15">S4</tspan>
        </text>
      </g>
      <g id="Line_11">
        <path d="M 852.8998 241.5089 C 867.1768 230.79855 887.3528 219.948 910.5 219.948 C 929.8487 219.948 947.4217 227.52956 961.2547 236.27338" marker-end="url(#Arrow_Marker)" stroke="black" stroke-linecap="round" stroke-linejoin="round" stroke-width="1"/>
      </g>
      <g id="Line_10">
        <path d="M 852.8437 283.04633 C 866.8431 293.51 886.5906 304 909.5 304 C 928.9382 304 946.765 296.44802 960.8351 287.76788" marker-end="url(#Arrow_Marker)" stroke="black" stroke-linecap="round" stroke-linejoin="round" stroke-width="1"/>
      </g>
      <g id="Graphic_9">
        <text transform="translate(897.082 201.5)" fill="black" style="white-space: pre;">
          <tspan font-family="Helvetica Neue" font-size="12" fill="black" x="7283063e-19" y="11">putZ</tspan>
        </text>
      </g>
      <g id="Graphic_8">
        <text transform="translate(905.586 309)" fill="black" style="white-space: pre;">
          <tspan font-family="Helvetica Neue" font-size="12" fill="black" x="0" y="11">getZ</tspan>
        </text>
      </g>
      <g id="Line_7">
        <line x1="532.5" y1="262.25" x2="620.276" y2="262.25" marker-end="url(#Arrow_Marker)" stroke="black" stroke-linecap="round" stroke-linejoin="round" stroke-width="1"/>
      </g>
      <g id="Graphic_6">
        <text transform="translate(561.226 246)" fill="black" style="white-space: pre;">
          <tspan font-family="Helvetica Neue" font-size="12" fill="black" x="0" y="11">deleteX</tspan>
        </text>
      </g>
      <g id="Line_5">
        <line x1="692.176" y1="262.25" x2="789.776" y2="262.25" marker-end="url(#Arrow_Marker)" stroke="black" stroke-linecap="round" stroke-linejoin="round" stroke-width="1"/>
      </g>
      <g id="Graphic_4">
        <text transform="translate(725.592 246)" fill="black" style="white-space: pre;">
          <tspan font-family="Helvetica Neue" font-size="12" fill="black" x="73896445e-20" y="11">deleteY</tspan>
        </text>
      </g>
      <g id="Line_3">
        <line x1="861.676" y1="262.25" x2="951.1" y2="262.25" marker-end="url(#Arrow_Marker)" stroke="black" stroke-linecap="round" stroke-linejoin="round" stroke-width="1"/>
      </g>
      <g id="Graphic_2">
        <text transform="translate(891.226 246)" fill="black" style="white-space: pre;">
          <tspan font-family="Helvetica Neue" font-size="12" fill="black" x="0" y="11">deleteZ</tspan>
        </text>
      </g>
    </g>
  </g>
</svg>